<?xml version="1.0" encoding="UTF-8" standalone="no"?>
<svg
   xmlns:dc="http://purl.org/dc/elements/1.1/"
   xmlns:cc="http://creativecommons.org/ns#"
   xmlns:rdf="http://www.w3.org/1999/02/22-rdf-syntax-ns#"
   xmlns:svg="http://www.w3.org/2000/svg"
   xmlns="http://www.w3.org/2000/svg"
   xmlns:xlink="http://www.w3.org/1999/xlink"
   xmlns:sodipodi="http://sodipodi.sourceforge.net/DTD/sodipodi-0.dtd"
   xmlns:inkscape="http://www.inkscape.org/namespaces/inkscape"
   viewBox="1 1 176 176"
   version="1.1"
   id="svg4050"
   sodipodi:docname="chrome-le-staging.svg"
   inkscape:version="0.92.5 (2060ec1f9f, 2020-04-08)">
  <metadata
     id="metadata4054">
    <rdf:RDF>
      <cc:Work
         rdf:about="">
        <dc:format>image/svg+xml</dc:format>
        <dc:type
           rdf:resource="http://purl.org/dc/dcmitype/StillImage" />
        <dc:title />
      </cc:Work>
    </rdf:RDF>
  </metadata>
  <sodipodi:namedview
     pagecolor="#ffffff"
     bordercolor="#666666"
     borderopacity="1"
     objecttolerance="10"
     gridtolerance="10"
     guidetolerance="10"
     inkscape:pageopacity="0"
     inkscape:pageshadow="2"
     inkscape:window-width="3696"
     inkscape:window-height="2032"
     id="namedview4052"
     showgrid="false"
     inkscape:snap-page="true"
     inkscape:zoom="4.793059"
     inkscape:cx="103.47832"
     inkscape:cy="49.601953"
     inkscape:window-x="144"
     inkscape:window-y="54"
     inkscape:window-maximized="1"
     inkscape:current-layer="g4148"
     inkscape:snap-global="true"
     inkscape:snap-nodes="false"
     inkscape:snap-bbox="true"
     inkscape:snap-bbox-midpoints="false"
     inkscape:bbox-nodes="true" />
  <defs
     id="defs3916">
    <circle
       id="a"
       cy="96"
       cx="96"
       r="88" />
    <clipPath
       id="a-3">
      <path
         id="path4117"
         d="M0 164.41h195.59V0H0v164.41z" />
    </clipPath>
  </defs>
  <clipPath
     id="b">
    <use
       width="100%"
       overflow="visible"
       xlink:href="#a"
       height="100%"
       id="use3918" />
  </clipPath>
  <g
     transform="translate(-7 -7)"
     clip-path="url(#b)"
     id="g3930">
    <path
       d="m21.97 8v108h39.39l34.64-60h88v-48z"
       fill="#db4437"
       id="path3921" />
    <linearGradient
       id="c"
       y2="44.354"
       gradientUnits="userSpaceOnUse"
       y1="75.021"
       x2="81.837"
       x1="29.337">
      <stop
         stop-color="#A52714"
         stop-opacity=".6"
         offset="0"
         id="stop3923" />
      <stop
         stop-color="#A52714"
         stop-opacity="0"
         offset=".66"
         id="stop3925" />
    </linearGradient>
    <path
       d="m21.97 8v108h39.39l34.64-60h88v-48z"
       fill="url(#c)"
       id="path3928" />
  </g>
  <path
     clip-path="url(#b)"
     fill-opacity=".15"
     d="m62.31 115.65l-39.83-68.31-0.58 1 39.54 67.8z"
     transform="translate(-7 -7)"
     fill="#3e2723"
     id="path3932" />
  <g
     transform="translate(-7 -7)"
     clip-path="url(#b)"
     id="g3943">
    <path
       d="m8 184h83.77l38.88-38.88v-29.12h-69.29l-53.36-91.52z"
       fill="#0f9d58"
       id="path3934" />
    <linearGradient
       id="d"
       y2="130.33"
       gradientUnits="userSpaceOnUse"
       y1="164.5"
       x2="52.538"
       x1="110.87">
      <stop
         stop-color="#055524"
         stop-opacity=".4"
         offset="0"
         id="stop3936" />
      <stop
         stop-color="#055524"
         stop-opacity="0"
         offset=".33"
         id="stop3938" />
    </linearGradient>
    <path
       d="m8 184h83.77l38.88-38.88v-29.12h-69.29l-53.36-91.52z"
       fill="url(#d)"
       id="path3941" />
  </g>
  <path
     clip-path="url(#b)"
     fill-opacity=".15"
     d="m129.84 117.33l-0.83-0.48-38.39 67.15h1.15l38.1-66.64z"
     transform="translate(-7 -7)"
     fill="#263238"
     id="path3945" />
  <g
     transform="translate(-7 -7)"
     clip-path="url(#b)"
     id="g3964">
    <defs
       id="defs3948">
      <path
         id="e"
         d="m8 184h83.77l38.88-38.88v-29.12h-69.29l-53.36-91.52z" />
    </defs>
    <clipPath
       id="f">
      <use
         width="100%"
         overflow="visible"
         xlink:href="#e"
         height="100%"
         id="use3950" />
    </clipPath>
    <g
       clip-path="url(#f)"
       id="g3962">
      <path
         d="m96 56l34.65 60-38.88 68h92.23v-128z"
         fill="#ffcd40"
         id="path3953" />
      <linearGradient
         id="g"
         y2="114.13"
         gradientUnits="userSpaceOnUse"
         y1="49.804"
         x2="136.55"
         x1="121.86">
        <stop
           stop-color="#EA6100"
           stop-opacity=".3"
           offset="0"
           id="stop3955" />
        <stop
           stop-color="#EA6100"
           stop-opacity="0"
           offset=".66"
           id="stop3957" />
      </linearGradient>
      <path
         d="m96 56l34.65 60-38.88 68h92.23v-128z"
         fill="url(#g)"
         id="path3960" />
    </g>
  </g>
  <g
     transform="translate(-7 -7)"
     clip-path="url(#b)"
     id="g3970">
    <path
       d="m96 56l34.65 60-38.88 68h92.23v-128z"
       fill="#ffcd40"
       id="path3966" />
    <path
       d="m96 56l34.65 60-38.88 68h92.23v-128z"
       fill="url(#g)"
       id="path3968" />
  </g>
  <g
     transform="translate(-7 -7)"
     clip-path="url(#b)"
     id="g3984">
    <defs
       id="defs3973">
      <path
         id="i"
         d="m96 56l34.65 60-38.88 68h92.23v-128z" />
    </defs>
    <clipPath
       id="j">
      <use
         width="100%"
         overflow="visible"
         xlink:href="#i"
         height="100%"
         id="use3975" />
    </clipPath>
    <g
       clip-path="url(#j)"
       id="g3982">
      <path
         d="m21.97 8v108h39.39l34.64-60h88v-48z"
         fill="#db4437"
         id="path3978" />
      <path
         d="m21.97 8v108h39.39l34.64-60h88v-48z"
         fill="url(#c)"
         id="path3980" />
    </g>
  </g>
  <radialGradient
     id="l"
     gradientUnits="userSpaceOnUse"
     cy="55.948"
     cx="668.18"
     gradientTransform="translate(-576)"
     r="84.078">
    <stop
       stop-color="#3E2723"
       stop-opacity=".2"
       offset="0"
       id="stop3986" />
    <stop
       stop-color="#3E2723"
       stop-opacity="0"
       offset="1"
       id="stop3988" />
  </radialGradient>
  <path
     clip-path="url(#b)"
     d="m96 56v20.95l78.4-20.95z"
     transform="translate(-7 -7)"
     fill="url(#l)"
     id="path3991" />
  <g
     transform="translate(-7 -7)"
     clip-path="url(#b)"
     id="g4005">
    <defs
       id="defs3994">
      <path
         id="m"
         d="m21.97 8v40.34l39.39 67.66 34.64-60h88v-48z" />
    </defs>
    <clipPath
       id="n">
      <use
         width="100%"
         overflow="visible"
         xlink:href="#m"
         height="100%"
         id="use3996" />
    </clipPath>
    <g
       clip-path="url(#n)"
       id="g4003">
      <path
         d="m8 184h83.77l38.88-38.88v-29.12h-69.29l-53.36-91.52z"
         fill="#0f9d58"
         id="path3999" />
      <path
         d="m8 184h83.77l38.88-38.88v-29.12h-69.29l-53.36-91.52z"
         fill="url(#d)"
         id="path4001" />
    </g>
  </g>
  <radialGradient
     id="p"
     gradientUnits="userSpaceOnUse"
     cy="48.52"
     cx="597.88"
     gradientTransform="translate(-576)"
     r="78.044">
    <stop
       stop-color="#3E2723"
       stop-opacity=".2"
       offset="0"
       id="stop4007" />
    <stop
       stop-color="#3E2723"
       stop-opacity="0"
       offset="1"
       id="stop4009" />
  </radialGradient>
  <path
     clip-path="url(#b)"
     d="m21.97 48.45l57.25 57.24-17.86 10.31z"
     transform="translate(-7 -7)"
     fill="url(#p)"
     id="path4012" />
  <radialGradient
     id="q"
     gradientUnits="userSpaceOnUse"
     cy="96.138"
     cx="671.84"
     gradientTransform="translate(-576)"
     r="87.87">
    <stop
       stop-color="#263238"
       stop-opacity=".2"
       offset="0"
       id="stop4014" />
    <stop
       stop-color="#263238"
       stop-opacity="0"
       offset="1"
       id="stop4016" />
  </radialGradient>
  <path
     clip-path="url(#b)"
     d="m91.83 183.89l20.96-78.2 17.86 10.31z"
     transform="translate(-7 -7)"
     fill="url(#q)"
     id="path4019" />
  <g
     transform="translate(-7 -7)"
     clip-path="url(#b)"
     id="g4025">
    <circle
       cy="96"
       cx="96"
       r="40"
       fill="#f1f1f1"
       id="circle4021" />
    <circle
       cy="96"
       cx="96"
       r="32"
       fill="#4285f4"
       id="circle4023" />
  </g>
  <g
     transform="translate(-7 -7)"
     clip-path="url(#b)"
     id="g4035">
    <path
       fill-opacity=".2"
       d="m96 55c-22.09 0-40 17.91-40 40v1c0-22.09 17.91-40 40-40h88v-1h-88z"
       fill="#3e2723"
       id="path4027" />
    <path
       fill-opacity=".1"
       d="m130.6 116c-6.92 11.94-19.81 20-34.6 20-14.8 0-27.69-8.06-34.61-20h-0.04l-53.35-91.52v1l53.36 91.52h0.04c6.92 11.94 19.81 20 34.61 20 14.79 0 27.68-8.05 34.6-20h0.05v-1h-0.06z"
       fill="#fff"
       id="path4029" />
    <path
       opacity=".1"
       d="m97 56c-0.17 0-0.33 0.02-0.5 0.03 21.86 0.27 39.5 18.05 39.5 39.97s-17.64 39.7-39.5 39.97c0.17 0 0.33 0.03 0.5 0.03 22.09 0 40-17.91 40-40s-17.91-40-40-40z"
       fill="#3e2723"
       id="path4031" />
    <path
       fill-opacity=".2"
       d="m131 117.33c3.4-5.88 5.37-12.68 5.37-19.96 0-4.22-0.66-8.28-1.87-12.09 0.95 3.42 1.5 7.01 1.5 10.73 0 7.28-1.97 14.08-5.37 19.96l0.02 0.04-38.88 68h1.16l38.09-66.64-0.02-0.04z"
       fill="#fff"
       id="path4033" />
  </g>
  <g
     transform="translate(-7 -7)"
     clip-path="url(#b)"
     id="g4041">
    <path
       fill-opacity=".2"
       d="m96 9c48.43 0 87.72 39.13 87.99 87.5 0-0.17 0.01-0.33 0.01-0.5 0-48.6-39.4-88-88-88s-88 39.4-88 88c0 0.17 0.01 0.33 0.01 0.5 0.27-48.37 39.56-87.5 87.99-87.5z"
       fill="#fff"
       id="path4037" />
    <path
       fill-opacity=".15"
       d="m96 183c48.43 0 87.72-39.13 87.99-87.5 0 0.17 0.01 0.33 0.01 0.5 0 48.6-39.4 88-88 88s-88-39.4-88-88c0-0.17 0.01-0.33 0.01-0.5 0.27 48.37 39.56 87.5 87.99 87.5z"
       fill="#3e2723"
       id="path4039" />
  </g>
  <radialGradient
     id="r"
     gradientUnits="userSpaceOnUse"
     cy="32.014"
     cx="34.286"
     gradientTransform="translate(-7 -7)"
     r="176.75">
    <stop
       stop-color="#fff"
       stop-opacity=".1"
       offset="0"
       id="stop4043" />
    <stop
       stop-color="#fff"
       stop-opacity="0"
       offset="1"
       id="stop4045" />
  </radialGradient>
  <circle
     cy="89"
     cx="89"
     r="88"
     fill="url(#r)"
     id="circle4048" />
  <g
     id="g4148"
     transform="translate(-145.86051,-45.991082)">
    <path
       id="path4122"
       d="M 0,0 H 400 V 245 H 0 Z"
       pointer-events="none"
       inkscape:connector-curvature="0"
       style="fill:none" />
    <g
       id="g976"
       transform="matrix(0.17283695,0,0,0.17283695,241.08253,135.93415)">
	<path
   id="path958"
   d="m 344.592,276.957 h -58.997 v -30.291 c 0,-24.191 -19.685,-43.876 -43.876,-43.876 -24.191,0 -43.876,19.685 -43.876,43.876 v 30.291 h -58.997 v -30.291 c 0,-56.724 46.149,-102.873 102.873,-102.873 56.724,0 102.873,46.149 102.873,102.873 z"
   inkscape:connector-curvature="0"
   style="fill:#ffa400" />

	<path
   id="path960"
   d="m 368.389,276.957 h -253.34 c -10.816,0 -19.665,8.85 -19.665,19.665 v 187.406 c 0,10.816 8.849,19.666 19.665,19.666 h 253.34 c 10.816,0 19.665,-8.85 19.665,-19.666 V 296.622 c 0,-10.816 -8.849,-19.665 -19.665,-19.665 z m -113.83,123.044 v 25.393 c 0,7.087 -5.749,12.837 -12.837,12.837 -7.088,0 -12.837,-5.749 -12.837,-12.837 v -25.389 c -7.897,-4.481 -13.233,-12.947 -13.233,-22.674 0,-14.396 11.671,-26.067 26.067,-26.067 14.396,0 26.067,11.671 26.067,26.067 0,9.727 -5.335,18.192 -13.227,22.67 z"
   inkscape:connector-curvature="0"
   style="fill:#003a70" />

	<path
   id="path962"
   d="M 89.367,249.016 H 28.235 c -9.911,0 -17.948,-8.036 -17.948,-17.948 0,-9.912 8.036,-17.948 17.948,-17.948 h 61.132 c 9.911,0 17.948,8.036 17.948,17.948 0,9.912 -8.037,17.948 -17.948,17.948 z"
   inkscape:connector-curvature="0"
   style="fill:#ffa400" />

	<path
   id="path964"
   d="m 132.43,152.854 c -4.01,0 -8.048,-1.338 -11.389,-4.085 L 72.685,109.008 c -7.656,-6.296 -8.758,-17.606 -2.462,-25.262 6.294,-7.654 17.601,-8.762 25.262,-2.464 l 48.356,39.761 c 7.656,6.296 8.758,17.606 2.462,25.262 -3.547,4.315 -8.69,6.549 -13.873,6.549 z"
   inkscape:connector-curvature="0"
   style="fill:#ffa400" />

	<path
   id="path966"
   d="m 241.718,110.588 c -9.911,0 -17.948,-8.036 -17.948,-17.948 V 31.027 c 0,-9.912 8.036,-17.948 17.948,-17.948 9.911,0 17.948,8.036 17.948,17.948 V 92.64 c -10e-4,9.912 -8.037,17.948 -17.948,17.948 z"
   inkscape:connector-curvature="0"
   style="fill:#ffa400" />

	<g
   id="g972">
		<g
   id="g970">
			<path
   id="path968"
   d="m 351.008,152.854 c -5.186,0 -10.326,-2.233 -13.873,-6.55 -6.296,-7.656 -5.194,-18.966 2.462,-25.262 l 48.356,-39.761 c 7.664,-6.299 18.971,-5.19 25.262,2.464 6.296,7.656 5.194,18.966 -2.462,25.262 l -48.356,39.761 c -3.342,2.747 -7.379,4.086 -11.389,4.086 z"
   inkscape:connector-curvature="0"
   style="fill:#ffa400" />

		</g>

	</g>

	<path
   id="path974"
   d="M 455.203,249.016 H 393.49 c -9.911,0 -17.948,-8.036 -17.948,-17.948 0,-9.912 8.036,-17.948 17.948,-17.948 h 61.713 c 9.911,0 17.948,8.036 17.948,17.948 -0.001,9.912 -8.037,17.948 -17.948,17.948 z"
   inkscape:connector-curvature="0"
   style="fill:#ffa400" />

</g>
  </g>
</svg>
